<svg width="50" height="41" viewBox="0 0 50 41" fill="none" xmlns="http://www.w3.org/2000/svg">
<path d="M7.28691 32.3918C8.08738 32.3918 8.71077 32.2733 9.15695 32.036C9.60308 31.7989 9.82626 31.5164 9.82626 31.1883H8.55659C8.55659 31.3548 8.46238 31.4986 8.27367 31.6197C8.0852 31.7408 7.75618 31.8014 7.28691 31.8014C6.8546 31.8014 6.53479 31.7408 6.32778 31.6197C6.12077 31.4986 6.01723 31.3548 6.01723 31.1883H4.74756C4.74756 31.5164 4.9731 31.7989 5.42383 32.036C5.87474 32.2733 6.49577 32.3918 7.28691 32.3918Z" fill="#04503D"/>
<path d="M7.28682 31.4683C7.50765 31.4683 7.69181 31.4293 7.83891 31.351C7.98618 31.2728 8.05967 31.1757 8.05967 31.0596C8.05967 30.9436 7.98618 30.8451 7.83891 30.7644C7.69181 30.6837 7.50765 30.6459 7.28682 30.6508C7.0846 30.6508 6.91206 30.69 6.76927 30.7682C6.62678 30.8465 6.55536 30.9436 6.55536 31.0596C6.55536 31.1757 6.62442 31.2728 6.76243 31.351C6.90043 31.4293 7.07533 31.4683 7.28682 31.4683Z" fill="#04503D"/>
<path d="M21.7914 33.3757H15.4154V32.5658C15.4154 32.2127 15.6315 31.9679 16.064 31.8316C16.1376 32.1546 16.3722 32.4208 16.7679 32.6302C17.1633 32.8396 17.7384 32.9443 18.493 32.9443C18.7873 32.9443 19.2082 32.9291 19.7558 32.8989C20.3031 32.8686 20.7149 32.8534 20.9909 32.8534C21.5337 32.8534 21.8052 32.9771 21.8052 33.2243C21.8052 33.29 21.8004 33.3404 21.7914 33.3757ZM23.2404 33.1486C23.2404 32.8712 23.0749 32.639 22.7436 32.4523C22.4124 32.2657 21.9156 32.1722 21.2532 32.1722C20.9495 32.1722 20.4963 32.1874 19.8938 32.2177C19.291 32.2479 18.8794 32.2631 18.6586 32.2631C18.2629 32.2631 17.9638 32.2165 17.7615 32.1231C17.5591 32.0297 17.4211 31.8872 17.3475 31.6954C18.7276 31.7056 19.9604 31.7938 21.0462 31.9603V31.2943C19.6751 31.0925 18.3871 30.9915 17.1819 30.9915C16.0869 30.9915 15.2498 31.1239 14.6701 31.3888C14.0906 31.6538 13.8007 32.0462 13.8007 32.5658V33.3757H13.0279H12.4758H11.7168V32.7626H10.1573V32.9291C10.1573 33.1411 10.2033 33.3884 10.2953 33.6709C10.1205 33.4741 9.85371 33.3757 9.49494 33.3757H9.34312H8.79104H8.03207V32.7626H6.47257V37.5234L2.78774 36.4184C3.5882 36.3276 4.22304 36.1296 4.69225 35.8243C5.16151 35.519 5.39609 35.1292 5.39609 34.6548C5.39609 34.3017 5.26263 33.8752 4.99589 33.3757H3.47782C3.49612 33.4514 3.50539 33.5625 3.50539 33.7087C3.50539 34.1982 3.17873 34.4429 2.52554 34.4429C2.24026 34.4429 2.01708 34.3937 1.85617 34.2953C1.69514 34.1969 1.61469 34.0595 1.61469 33.8828C1.61469 33.7214 1.66061 33.5524 1.75269 33.3757H0.207008C0.0690021 33.5422 0 33.7466 0 33.9888C0 34.3421 0.188474 34.6259 0.565835 34.8403C0.94296 35.0548 1.47196 35.162 2.1529 35.162C2.93483 35.162 3.50539 34.9753 3.86422 34.6019V34.6548C3.86422 35.0283 3.6663 35.3197 3.27076 35.5291C2.8751 35.7385 2.30926 35.8458 1.57331 35.8507H0.372638V36.5849L6.45876 38.3712L6.47257 38.3636V38.3712H8.03207V34.0947H8.79104H9.3155C9.62816 34.0947 9.83995 34.1326 9.95033 34.2083C10.0608 34.284 10.116 34.4202 10.116 34.617V38.3712H11.7168V34.0947H12.4758H13.0279H13.8007V38.3712H15.4016V34.0947H17.4855V37.145C17.4855 37.5285 17.7271 37.8338 18.2101 38.0609C18.6931 38.2879 19.2841 38.4015 19.9835 38.4015C21.0506 38.4015 21.9087 38.1959 22.5573 37.7846C23.206 37.3734 23.5303 36.9003 23.5303 36.3654C23.5303 35.9215 23.2909 35.5644 22.8126 35.2944C22.3341 35.0245 21.6672 34.8895 20.8115 34.8895C20.5538 34.8895 20.2871 34.9046 20.011 34.9349V35.7069C20.1857 35.6868 20.3744 35.6766 20.5769 35.6766C21.4785 35.6766 21.9294 35.9063 21.9294 36.3654C21.9294 36.6935 21.7499 36.9873 21.3912 37.2472C21.0323 37.5071 20.5631 37.637 19.9835 37.637C19.7165 37.637 19.5004 37.5942 19.3348 37.5083C19.1692 37.4226 19.0864 37.3015 19.0864 37.145V34.0947H24.3997V33.3757H23.2129C23.2312 33.2748 23.2404 33.1991 23.2404 33.1486Z" fill="#04503D"/>
<path d="M47.0743 35.4345L45.9978 35.0561L43.2514 34.0948H47.0743V35.4345ZM47.0743 37.5008L43.9553 36.6985L45.846 35.9038L47.0743 36.305V37.5008ZM32.2247 35.3437V37.4251L29.3955 36.2671C30.3982 35.7928 31.3414 35.485 32.2247 35.3437ZM41.9956 33.3758H41.4436H40.6983V33.0806C40.6983 32.793 40.8432 32.5785 41.1331 32.4372C41.4229 32.296 41.899 32.2253 42.5615 32.2253C43.7114 32.2253 44.8937 32.3364 46.1083 32.5583V31.8771C44.9028 31.63 43.6884 31.5062 42.4648 31.5062C41.3698 31.5062 40.5328 31.6387 39.953 31.9036C39.3734 32.1685 39.0837 32.5609 39.0837 33.0806V33.3758H38.3109H37.7588H27.1736V34.0948H32.2247V34.549C30.9458 34.6802 29.5335 35.1065 27.9878 35.8281V36.7061L32.1338 38.3409L30.9687 39.0373V39.5898L34.902 40.3846V39.658L32.5557 39.1735L33.8255 38.3713L33.7842 38.3668V35.3058C34.4557 35.3261 34.987 35.4283 35.3783 35.6124C35.7692 35.7966 35.9647 36.0325 35.9647 36.32C35.9647 36.7591 35.6012 36.9786 34.8744 36.9786H34.7226V37.7809C34.7869 37.7859 34.879 37.7884 34.9987 37.7884C35.7622 37.7884 36.374 37.6598 36.8342 37.4024C37.2942 37.1451 37.5242 36.7844 37.5242 36.32C37.5242 35.7953 37.1561 35.3702 36.4202 35.0447C35.684 34.7192 34.8055 34.5516 33.7842 34.5414V34.0948H37.7588H38.3109H39.0837V38.3713H40.6846V34.0948H41.4436H41.9956H42.3682V34.7457L43.9691 35.2831L43.9553 35.2983L44.5074 35.4724L42.3407 36.3428V37.2056L42.3268 37.2132L47.0743 38.3713H48.6751V34.0948H50V33.3758H41.9956Z" fill="#04503D"/>
<path d="M44.5312 12.0427C37.2545 7.77631 26.2731 8.38858 21.5133 13.2698C19.0111 15.8359 19.5627 19.4587 22.5436 21.423C22.6595 21.4995 22.7791 21.5734 22.9024 21.6446C27.9177 24.5427 38.9088 23.7309 40.9419 19.1954C41.1647 19.2774 41.1983 19.4872 41.3948 19.5552C41.9026 19.7306 42.4822 19.8435 43.0332 19.9814C42.9174 19.6391 42.9817 19.2278 42.651 18.9679C41.7885 18.2902 40.762 17.6746 39.785 17.0416C35.2025 14.0727 27.9584 15.1021 24.7217 17.1393C24.2382 17.4436 23.9784 18.0551 24.1705 18.4413C24.5988 19.302 25.3783 20.1101 26.0147 20.9396C25.9533 20.9767 25.892 21.0139 25.8307 21.051C25.2762 20.7452 24.6247 20.4762 24.1843 20.1271C22.4312 18.7374 22.0931 17.2092 22.6777 15.5606C23.7374 12.5715 28.9656 10.2414 34.1828 10.6675C40.345 11.1708 44.4464 13.1578 46.2959 16.4069C48.0859 19.5512 46.979 22.4264 42.3842 24.6214C36.3882 27.4859 29.4668 27.9179 22.1454 26.3726C17.4764 25.3871 14.3276 23.5401 13.0369 20.8657C12.0532 18.8272 12.7012 16.7909 13.4135 14.7596C13.9983 13.092 14.4026 11.4053 14.887 9.7271C15.0591 9.11972 14.7549 8.54565 14.7549 8.54565L14.1858 9.65866C12.9158 12.3531 11.3885 15.0205 10.4376 17.7484C9.09611 21.5967 12.002 24.8732 18.1407 26.9001C23.2681 28.593 28.8533 29.0192 34.6246 28.3153C41.3057 27.5003 46.5519 25.5179 48.7553 21.8339C50.9389 18.183 49.3008 14.8392 44.5312 12.0427Z" fill="#04503D"/>
<path d="M2.3713 0.00170422C1.15345 -0.0233526 0.532899 0.22375 0.458583 0.838122C0.351331 1.72427 0.208013 2.62268 0.354282 3.50212C0.914687 6.87168 6.01045 9.94371 11.5193 10.5058C11.3595 6.74326 8.04694 3.8645 3.37264 1.32511C9.18688 2.87156 12.0253 5.54689 13.236 8.88379C14.1561 7.61811 14.0069 6.28797 12.8995 4.5678C11.3977 2.2353 6.35475 0.0836725 2.3713 0.00170422Z" fill="#799D3E"/>
<path d="M28.3155 4.26947C28.2626 4.05394 27.6131 3.75912 27.1696 3.71454C21.5499 3.14976 16.1302 5.73836 15.8222 9.16374C18.0949 6.80809 21.0824 5.00434 26.0705 4.52953C21.8349 5.94794 18.3352 7.69168 16.7985 10.397L16.693 10.5339L17.3777 10.5529C17.3868 10.5536 17.3958 10.5542 17.4049 10.5546C17.6239 10.5627 17.845 10.5635 18.0676 10.5584H18.0902L18.0798 10.5582C23.1512 10.4367 28.978 6.9685 28.3155 4.26947Z" fill="#799D3E"/>
</svg>
