<svg width="66" height="54" viewBox="0 0 66 54" fill="none" xmlns="http://www.w3.org/2000/svg">
<path d="M9.61855 42.7571C10.6752 42.7571 11.498 42.6007 12.087 42.2876C12.6759 41.9746 12.9705 41.6016 12.9705 41.1686H11.2945C11.2945 41.3884 11.1702 41.5782 10.9211 41.738C10.6723 41.8979 10.238 41.9778 9.61855 41.9778C9.04789 41.9778 8.62575 41.8979 8.35249 41.738C8.07924 41.5782 7.94258 41.3884 7.94258 41.1686H6.2666C6.2666 41.6016 6.56432 41.9746 7.15929 42.2876C7.75449 42.6007 8.57424 42.7571 9.61855 42.7571Z" fill="#04503D"/>
<path d="M9.61837 41.5382C9.90985 41.5382 10.153 41.4867 10.3471 41.3833C10.5415 41.2801 10.6385 41.152 10.6385 40.9987C10.6385 40.8456 10.5415 40.7157 10.3471 40.609C10.153 40.5026 9.90985 40.4526 9.61837 40.4592C9.35143 40.4592 9.12368 40.5108 8.9352 40.614C8.74711 40.7174 8.65283 40.8456 8.65283 40.9987C8.65283 41.152 8.74399 41.2801 8.92616 41.3833C9.10833 41.4867 9.3392 41.5382 9.61837 41.5382Z" fill="#04503D"/>
<path d="M28.7647 44.056H20.3483V42.987C20.3483 42.5208 20.6336 42.1977 21.2046 42.0179C21.3016 42.4442 21.6114 42.7956 22.1337 43.072C22.6557 43.3484 23.4148 43.4866 24.4108 43.4866C24.7993 43.4866 25.3549 43.4666 26.0777 43.4266C26.8001 43.3866 27.3437 43.3666 27.7081 43.3666C28.4245 43.3666 28.7829 43.5299 28.7829 43.8562C28.7829 43.9429 28.7766 44.0095 28.7647 44.056ZM30.6774 43.7563C30.6774 43.3901 30.4589 43.0836 30.0216 42.8372C29.5844 42.5908 28.9286 42.4675 28.0542 42.4675C27.6534 42.4675 27.0551 42.4875 26.2598 42.5274C25.4642 42.5674 24.9208 42.5874 24.6294 42.5874C24.1071 42.5874 23.7123 42.5258 23.4453 42.4026C23.178 42.2794 22.9958 42.0913 22.8988 41.8381C24.7205 41.8515 26.3478 41.9679 27.781 42.1877V41.3085C25.9711 41.0422 24.271 40.9089 22.6802 40.9089C21.2347 40.9089 20.1298 41.0837 19.3646 41.4334C18.5996 41.7831 18.2169 42.3011 18.2169 42.987V44.056H17.1969H16.4681H15.4663V43.2468H13.4077V43.4666C13.4077 43.7463 13.4683 44.0728 13.5899 44.4457C13.359 44.1859 13.0069 44.056 12.5333 44.056H12.3329H11.6042H10.6024V43.2468H8.54381V49.5311L3.67982 48.0724C4.73644 47.9525 5.57443 47.6912 6.19378 47.2881C6.81322 46.8852 7.12286 46.3707 7.12286 45.7445C7.12286 45.2784 6.94669 44.7154 6.59458 44.056H4.59074C4.61489 44.156 4.62712 44.3026 4.62712 44.4956C4.62712 45.1418 4.19594 45.4648 3.33372 45.4648C2.95715 45.4648 2.66255 45.3998 2.45015 45.2699C2.23759 45.1401 2.13139 44.9587 2.13139 44.7254C2.13139 44.5124 2.19201 44.2893 2.31356 44.056H0.273251C0.091083 44.2759 0 44.5456 0 44.8653C0 45.3316 0.248786 45.7063 0.746904 45.9893C1.24471 46.2725 1.94299 46.4139 2.84183 46.4139C3.87399 46.4139 4.62713 46.1676 5.10078 45.6746V45.7445C5.10078 46.2375 4.83952 46.6222 4.31741 46.8985C3.79514 47.1749 3.04823 47.3166 2.07678 47.3231H0.491883V48.2922L8.52558 50.6501L8.54381 50.6401V50.6501H10.6024V45.0052H11.6042H12.2965C12.7092 45.0052 12.9888 45.0552 13.1345 45.1551C13.2803 45.255 13.3531 45.4348 13.3531 45.6946V50.6501H15.4663V45.0052H16.4681H17.1969H18.2169V50.6501H20.3302V45.0052H23.0809V49.0316C23.0809 49.5378 23.3998 49.9408 24.0373 50.2405C24.6749 50.5402 25.4551 50.6901 26.3783 50.6901C27.7869 50.6901 28.9195 50.4187 29.7757 49.8758C30.6319 49.333 31.06 48.7086 31.06 48.0025C31.06 47.4165 30.7441 46.9451 30.1127 46.5888C29.4811 46.2325 28.6007 46.0543 27.4713 46.0543C27.1311 46.0543 26.779 46.0743 26.4146 46.1142V47.1333C26.6452 47.1067 26.8943 47.0933 27.1616 47.0933C28.3516 47.0933 28.9468 47.3965 28.9468 48.0025C28.9468 48.4355 28.71 48.8234 28.2364 49.1664C27.7628 49.5095 27.1433 49.681 26.3783 49.681C26.0258 49.681 25.7406 49.6245 25.522 49.5111C25.3034 49.398 25.1941 49.2381 25.1941 49.0316V45.0052H32.2077V44.056H30.6411C30.6652 43.9229 30.6774 43.823 30.6774 43.7563Z" fill="#04503D"/>
<path d="M62.1381 46.7736L60.7172 46.2741L57.0919 45.0052H62.1381V46.7736ZM62.1381 49.5011L58.021 48.4421L60.5167 47.3931L62.1381 47.9226V49.5011ZM42.5366 46.6537V49.4012L38.8021 47.8726C40.1257 47.2466 41.3707 46.8403 42.5366 46.6537ZM55.4343 44.0561H54.7056H53.7217V43.6664C53.7217 43.2867 53.913 43.0037 54.2957 42.8172C54.6782 42.6308 55.3067 42.5374 56.1812 42.5374C57.6991 42.5374 59.2598 42.6841 60.863 42.977V42.0779C59.2718 41.7516 57.6687 41.5883 56.0536 41.5883C54.6082 41.5883 53.5033 41.7631 52.7381 42.1128C51.9729 42.4625 51.5905 42.9804 51.5905 43.6664V44.0561H50.5704H49.8417H35.8691V45.0052H42.5366V45.6047C40.8484 45.778 38.9842 46.3407 36.9439 47.2931V48.4521L42.4167 50.61L40.8787 51.5293V52.2586L46.0706 53.3077V52.3486L42.9736 51.7091L44.6497 50.6501L44.5951 50.6443V46.6038C45.4816 46.6305 46.1829 46.7654 46.6993 47.0084C47.2154 47.2516 47.4734 47.5629 47.4734 47.9425C47.4734 48.522 46.9936 48.8118 46.0342 48.8118H45.8339V49.8708C45.9188 49.8775 46.0403 49.8808 46.1982 49.8808C47.2062 49.8808 48.0137 49.7109 48.6212 49.3713C49.2284 49.0316 49.532 48.5554 49.532 47.9425C49.532 47.2499 49.0461 46.6887 48.0747 46.2591C47.1029 45.8294 45.9432 45.6081 44.5951 45.5947V45.0052H49.8417H50.5704H51.5905V50.6501H53.7037V45.0052H54.7056H55.4343H55.9261V45.8644L58.0393 46.5738L58.021 46.5938L58.7498 46.8236L55.8898 47.9726V49.1115L55.8715 49.1215L62.1381 50.6501H64.2513V45.0052H66.0001V44.0561H55.4343Z" fill="#04503D"/>
<path d="M58.7816 15.8965C49.1764 10.2648 34.6809 11.073 28.3979 17.5162C25.0949 20.9035 25.8231 25.6856 29.7578 28.2785C29.9108 28.3794 30.0688 28.4769 30.2316 28.5709C36.8517 32.3964 51.3601 31.3249 54.0437 25.338C54.3379 25.4463 54.3821 25.7232 54.6416 25.8129C55.3118 26.0445 56.0769 26.1935 56.8042 26.3755C56.6514 25.9237 56.7363 25.3808 56.2997 25.0377C55.1613 24.1431 53.8062 23.3306 52.5166 22.495C46.4676 18.576 36.9054 19.9348 32.633 22.6239C31.9948 23.0256 31.6518 23.8327 31.9054 24.3426C32.4707 25.4787 33.4997 26.5453 34.3397 27.6403C34.2587 27.6893 34.1778 27.7384 34.0968 27.7874C33.3649 27.3838 32.5049 27.0286 31.9236 26.5678C29.6095 24.7334 29.1632 22.7162 29.9348 20.54C31.3338 16.5944 38.2349 13.5187 45.1216 14.0811C53.2558 14.7455 58.6697 17.3683 61.111 21.6572C63.4738 25.8077 62.0127 29.6029 55.9476 32.5003C48.0328 36.2815 38.8965 36.8518 29.2322 34.8119C23.0692 33.511 18.9128 31.073 17.209 27.5428C15.9105 24.852 16.7659 22.164 17.7061 19.4828C18.478 17.2815 19.0118 15.0551 19.6512 12.8398C19.8784 12.0381 19.4768 11.2803 19.4768 11.2803L18.7256 12.7495C17.0492 16.3061 15.0332 19.8271 13.7779 23.428C12.0071 28.5077 15.8429 32.8327 23.946 35.5082C30.7142 37.7429 38.0867 38.3055 45.7048 37.3763C54.5239 36.3005 61.4489 33.6838 64.3575 28.8208C67.2398 24.0016 65.0775 19.5878 58.7816 15.8965Z" fill="#04503D"/>
<path d="M3.12991 0.00224781C1.52234 -0.0308266 0.703211 0.295349 0.605115 1.10632C0.463541 2.27603 0.274361 3.46194 0.467437 4.6228C1.20717 9.07064 7.93359 13.1257 15.2053 13.8677C14.9944 8.90112 10.6218 5.10115 4.45168 1.74914C12.1265 3.79047 15.8732 7.3219 17.4714 11.7266C18.6859 10.0559 18.489 8.30013 17.0271 6.02951C15.0448 2.9506 8.38807 0.110446 3.12991 0.00224781Z" fill="#799D3E"/>
<path d="M37.3764 5.6357C37.3065 5.35119 36.4492 4.96203 35.8638 4.90319C28.4458 4.15768 21.2918 7.57464 20.8853 12.0961C23.8852 8.98668 27.8287 6.60573 34.413 5.97897C28.822 7.85129 24.2024 10.153 22.174 13.7241L22.0347 13.9047L22.9385 13.9298C22.9505 13.9308 22.9623 13.9316 22.9743 13.932C23.2634 13.9428 23.5554 13.9438 23.8491 13.9371H23.879L23.8652 13.9368C30.5596 13.7765 38.251 9.19842 37.3764 5.6357Z" fill="#799D3E"/>
</svg>
